<?xml version="1.0" encoding="UTF-8"?>
<svg id="Layer_1" xmlns="http://www.w3.org/2000/svg" version="1.1" xmlns:xlink="http://www.w3.org/1999/xlink" viewBox="0 0 358.03 631.15">
  <!-- Generator: Adobe Illustrator 29.5.1, SVG Export Plug-In . SVG Version: 2.1.0 Build 141)  -->
  <defs>
    <style>
      .st0 {
        fill: #0e0e0f;
      }

      .st1 {
        clip-path: url(#clippath-21);
      }

      .st2 {
        clip-path: url(#clippath-6);
      }

      .st3 {
        clip-path: url(#clippath-7);
      }

      .st4 {
        clip-path: url(#clippath-17);
      }

      .st5 {
        clip-path: url(#clippath-15);
      }

      .st6 {
        clip-path: url(#clippath-18);
      }

      .st7 {
        clip-path: url(#clippath-4);
      }

      .st8 {
        clip-path: url(#clippath-22);
      }

      .st9 {
        clip-path: url(#clippath-9);
      }

      .st10 {
        clip-path: url(#clippath-10);
      }

      .st11 {
        fill: #2c6449;
      }

      .st12 {
        clip-path: url(#clippath-11);
      }

      .st13 {
        fill: none;
      }

      .st14 {
        clip-path: url(#clippath-1);
      }

      .st15 {
        clip-path: url(#clippath-5);
      }

      .st16 {
        clip-path: url(#clippath-20);
      }

      .st17 {
        clip-path: url(#clippath-8);
      }

      .st18 {
        clip-path: url(#clippath-3);
      }

      .st19 {
        clip-path: url(#clippath-12);
      }

      .st20 {
        clip-path: url(#clippath-14);
      }

      .st21 {
        clip-path: url(#clippath-19);
      }

      .st22 {
        clip-path: url(#clippath-16);
      }

      .st23 {
        clip-path: url(#clippath-2);
      }

      .st24 {
        clip-path: url(#clippath-13);
      }

      .st25 {
        clip-path: url(#clippath);
      }
    </style>
    <clipPath id="clippath">
      <rect class="st13" x="77.97" y="274.7" width="27.5" height="178.68"/>
    </clipPath>
    <clipPath id="clippath-1">
      <rect class="st13" x="64.2" y="274.7" width="5.98" height="178.68"/>
    </clipPath>
    <clipPath id="clippath-2">
      <rect class="st13" x="116.41" y="274.7" width="17.6" height="178.68"/>
    </clipPath>
    <clipPath id="clippath-3">
      <rect class="st13" x="183.25" y="85.79" width="147.88" height="36.35"/>
    </clipPath>
    <clipPath id="clippath-4">
      <path class="st13" d="M220.75,100.45l15.79,17.1c6.65-.24,13.07-.34,19.22-.36l-3.68-16.74,15.55,16.83c7.47.13,14.45.41,20.84.75l-3.89-17.58,17.03,18.43c17.96,1.39,28.73,3.11,28.73,3.11-81.89-80.68-146.92,0-146.92,0,14.24-1.94,28.08-3.17,41.23-3.91l-3.88-17.63h-.02Z"/>
    </clipPath>
    <clipPath id="clippath-5">
      <rect class="st13" x="94.52" y="124.24" width="97.12" height="111.17"/>
    </clipPath>
    <clipPath id="clippath-6">
      <path class="st13" d="M150.68,138.53l2.54,23.13c-4.54,4.87-8.83,9.63-12.87,14.28l-10.22-13.77,2.5,22.79c-4.8,5.73-9.18,11.18-13.11,16.22l-10.72-14.45,2.74,24.94c-10.74,14.47-16.5,23.73-16.5,23.73-7.19-114.74,96.38-110.89,96.38-110.89-10.8,9.47-20.81,19.11-30,28.55l-10.75-14.51h0Z"/>
    </clipPath>
    <clipPath id="clippath-7">
      <rect class="st13" x="53.42" y="114.99" width="130.88" height="76.37"/>
    </clipPath>
    <clipPath id="clippath-8">
      <path class="st13" d="M140.52,121.16l-6.07,22.46c-5.99,2.87-11.73,5.74-17.18,8.59l-4.49-16.53-5.98,22.12c-6.56,3.58-12.62,7.05-18.13,10.32l-4.7-17.37-6.56,24.23c-15.27,9.55-24,16.08-24,16.08,35.15-109.46,130.17-68.11,130.17-68.11-13.51,4.88-26.35,10.2-38.34,15.65l-4.72-17.42h0Z"/>
    </clipPath>
    <clipPath id="clippath-9">
      <rect class="st13" x="53.42" y="54.42" width="135.07" height="70.31"/>
    </clipPath>
    <clipPath id="clippath-10">
      <path class="st13" d="M162.52,89.43l-21.4,9.14c-5.97-2.93-11.77-5.66-17.39-8.19l10.22-13.75-21.07,8.99c-6.88-2.95-13.36-5.55-19.32-7.85l10.73-14.44-23.08,9.85c-16.97-6.09-27.49-8.93-27.49-8.93,107.73-40.11,134.06,60.12,134.06,60.12-12.2-7.6-24.32-14.39-36.02-20.45l10.77-14.49h0Z"/>
    </clipPath>
    <clipPath id="clippath-11">
      <rect class="st13" x="183.25" y="11.15" width="98.41" height="110.99"/>
    </clipPath>
    <clipPath id="clippath-12">
      <path class="st13" d="M193.22,79.69l23.25-.7c4.19-5.17,8.31-10.08,12.34-14.74l-15.04-8.18,22.92-.69c5.01-5.55,9.8-10.65,14.24-15.23l-15.81-8.6,25.09-.76c12.84-12.63,21.2-19.62,21.2-19.62-114.62,8.82-96.43,110.84-96.43,110.84,7.88-12.02,16.04-23.27,24.11-33.67l-15.86-8.63h0Z"/>
    </clipPath>
    <clipPath id="clippath-13">
      <rect class="st13" x="183.25" y="122.14" width="77.61" height="129"/>
    </clipPath>
    <clipPath id="clippath-14">
      <path class="st13" d="M220.77,144.59l-7.37,22.07c3.4,5.71,6.58,11.28,9.55,16.67l12.88-11.3-7.26,21.73c3.49,6.62,6.61,12.86,9.38,18.62l13.53-11.87-7.94,23.79c7.43,16.42,11.11,26.69,11.11,26.69,31.27-110.63-70.77-128.77-70.77-128.77,8.56,11.55,16.31,23.08,23.29,34.25l13.58-11.89h0Z"/>
    </clipPath>
    <clipPath id="clippath-15">
      <rect class="st13" x="178.89" y="115.85" width="120.77" height="88.1"/>
    </clipPath>
    <clipPath id="clippath-16">
      <path class="st13" d="M221.93,123l3.04,23.07c5.57,3.64,10.86,7.26,15.9,10.8l6.63-15.81,3,22.72c6.02,4.42,11.57,8.67,16.59,12.62l6.96-16.59,3.29,24.88c13.87,11.5,21.67,19.1,21.67,19.1-20.36-113.12-120.02-84.73-120.02-84.73,12.75,6.62,24.77,13.6,35.95,20.58l6.98-16.65Z"/>
    </clipPath>
    <clipPath id="clippath-17">
      <rect class="st13" x="169.24" y="122.37" width="27.94" height="331.6"/>
    </clipPath>
    <clipPath id="clippath-18">
      <rect class="st13" x="148.64" y="274.69" width="11.14" height="178.68"/>
    </clipPath>
    <clipPath id="clippath-19">
      <rect class="st13" x="246.79" y="274.69" width="13.43" height="178.68"/>
    </clipPath>
    <clipPath id="clippath-20">
      <rect class="st13" x="210.74" y="274.69" width="27.5" height="178.68"/>
    </clipPath>
    <clipPath id="clippath-21">
      <rect class="st13" x="270.33" y="274.69" width="19.88" height="178.68"/>
    </clipPath>
    <clipPath id="clippath-22">
      <rect class="st13" x="304.08" y="274.69" width="5.98" height="178.68"/>
    </clipPath>
  </defs>
  <g class="st25">
    <path class="st0" d="M58.78,269.28h52.11v189.49h-52.11v-189.49Z"/>
  </g>
  <g class="st14">
    <path class="st0" d="M58.78,269.28h52.11v189.49h-52.11v-189.49Z"/>
  </g>
  <g class="st23">
    <path class="st0" d="M116.41,274.7h17.6v178.66h-17.6v-178.66Z"/>
  </g>
  <g class="st18">
    <g class="st7">
      <path class="st11" d="M48,5.74h287.73v453.23H48V5.74Z"/>
    </g>
  </g>
  <g class="st15">
    <g class="st2">
      <path class="st11" d="M48,5.74h287.73v453.23H48V5.74Z"/>
    </g>
  </g>
  <g class="st3">
    <g class="st17">
      <path class="st11" d="M48,5.74h287.73v453.23H48V5.74Z"/>
    </g>
  </g>
  <g class="st9">
    <g class="st10">
      <path class="st11" d="M48,5.74h287.73v453.23H48V5.74Z"/>
    </g>
  </g>
  <g class="st12">
    <g class="st19">
      <path class="st11" d="M48,5.74h287.73v453.23H48V5.74Z"/>
    </g>
  </g>
  <g class="st24">
    <g class="st20">
      <path class="st11" d="M48,5.74h287.73v453.23H48V5.74Z"/>
    </g>
  </g>
  <g class="st5">
    <g class="st22">
      <path class="st11" d="M48,5.74h287.73v453.23H48V5.74Z"/>
    </g>
  </g>
  <g class="st4">
    <path class="st11" d="M48,5.74h287.73v453.23H48V5.74Z"/>
  </g>
  <g class="st6">
    <path class="st0" d="M48,5.74h287.73v453.23H48V5.74Z"/>
  </g>
  <g class="st21">
    <path class="st0" d="M48,5.74h287.73v453.23H48V5.74Z"/>
  </g>
  <g class="st16">
    <path class="st0" d="M48,5.74h287.73v453.23H48V5.74Z"/>
  </g>
  <g class="st1">
    <path class="st0" d="M48,5.74h287.73v453.23H48V5.74Z"/>
  </g>
  <g class="st8">
    <path class="st0" d="M48,5.74h287.73v453.23H48V5.74Z"/>
  </g>
  <path d="M101.96,506.29c0,3.04-1.97,6.68-5.92,10.93-2.94,3.11-7.42,5.68-13.44,7.72-5.35,1.8-10.22,2.7-14.58,2.7s-7.48-.64-9.98-1.9c0,5.05-1.04,9.24-3.11,12.59-1.34,2.2-3.64,4.33-6.92,6.36-4.65,2.81-9.76,4.21-15.34,4.21-6.56,0-11.34-1.69-14.34-5.06-2.14-2.37-3.21-5.26-3.21-8.67,0-3.61.84-7.2,2.51-10.78,1.43-3.07,2.55-4.6,3.36-4.6.66,0,1,.34,1,1,0,.03-.52,1.26-1.54,3.67-1.02,2.4-1.52,4.51-1.52,6.31,0,7.25,5.23,10.88,15.7,10.88,9.25,0,15.95-2.36,20.11-7.08,0-5.78-1.32-11.02-3.97-15.73l2.65-6.37c.27,0,1.54,1.66,3.82,4.97.86,1.3,2.8,1.95,5.82,1.95,13.16-13.16,22.85-19.75,29.07-19.75,2.34,0,4.56.7,6.67,2.08,2.11,1.39,3.16,2.92,3.16,4.59ZM96.75,510.09c0-.96-.96-1.84-2.88-2.62-1.93-.79-3.91-1.18-5.95-1.18-4.88,0-11.89,4.6-21.06,13.78h2.56c4.88,0,10.66-1.2,17.32-3.62,6.67-2.43,10.01-4.54,10.01-6.36Z"/>
  <path d="M143.12,526.64h-2.26c-.5,3.24-2.54,7.15-6.11,11.73-4.58,5.81-9.44,8.72-14.58,8.72-2.92,0-6.04-.82-9.37-2.46-3.08-1.5-4.62-2.67-4.62-3.51,0-.5.3-.75.9-.75-.07,0,.8.24,2.61.72,1.8.49,3.61.74,5.42.74,6.58,0,12.32-2.71,17.24-8.13,2.87-3.14,4.59-5.52,5.16-7.16-.96.13-2.37.2-4.21.2-2.94,0-5.26-.79-6.96-2.36-1.47-1.3-2.21-2.84-2.21-4.6,0-2.61,1-5.4,3.02-8.37,2.11-3.11,4.2-4.67,6.26-4.67,3.21,0,5.74,4.21,7.57,12.63.74-.23,1.46-.34,2.16-.34v7.62ZM137.05,520.07c-1.64-4.95-3.52-7.42-5.62-7.42-.83,0-1.66.52-2.47,1.54-.82,1.02-1.23,2.06-1.23,3.13,0,.8.51,1.54,1.52,2.23s2.29,1.03,3.83,1.03,2.83-.17,3.97-.51Z"/>
  <path d="M143.11,526.64c-2.34,0-3.51-1.27-3.51-3.82s1.17-3.8,3.51-3.8h24.88v7.62h-24.88Z"/>
  <path d="M201.28,474.35c0,.86-.22,1.86-.66,2.98-.44,1.11-1.09,2.26-1.95,3.42.46.37.88.73,1.26,1.07.39.33.59.57.59.74,0,.14-.11.37-.33.67-.22.29-.48.6-.79.9-.29.29-.59.57-.87.8-.29.23-.49.34-.62.34-.21,0-.41-.07-.61-.2-.2-.14-.41-.29-.62-.46-.22-.16-.43-.33-.64-.49-.2-.17-.39-.31-.59-.41-1.27,1.07-2.69,1.91-4.26,2.51-1.57.6-3.23.9-4.97.9-1.95,0-3.39-.16-4.34-.49-.95-.34-1.43-.73-1.43-1.16,0-.34.25-.51.75-.51.7,0,1.57-.05,2.61-.16,1.04-.12,2.12-.29,3.26-.52,1.13-.24,2.25-.54,3.33-.9,1.09-.37,2.04-.79,2.84-1.26-.57-.4-1.12-.8-1.66-1.2-.54-.4-1.01-.82-1.43-1.26-.42-.43-.75-.91-1-1.41-.25-.5-.38-1.04-.38-1.61,0-.76.29-1.61.87-2.52.59-.92,1.58-1.76,2.98-2.54.94-.46,1.82-.78,2.65-.97.84-.18,1.64-.28,2.41-.28,1.18,0,2.07.37,2.67,1.11.6.73.9,1.7.9,2.9ZM198.02,475.79c0-.76-.2-1.38-.59-1.85-.39-.47-.96-.7-1.72-.7s-1.46.22-2.08.66c-.62.44-.93.89-.93,1.36,0,1.47,1.29,2.97,3.87,4.51.4-.57.75-1.17,1.03-1.82.28-.66.43-1.37.43-2.15Z"/>
  <path d="M218.42,510.09c0-.96-.96-1.84-2.88-2.62-1.93-.79-3.91-1.18-5.95-1.18-4.88,0-11.89,4.6-21.06,13.78h2.56c4.88,0,10.66-1.2,17.32-3.62,6.67-2.43,10.01-4.54,10.01-6.36ZM223.63,506.29c0,3.04-1.97,6.68-5.92,10.93-2.94,3.11-7.42,5.68-13.44,7.72-5.34,1.8-10.21,2.7-14.58,2.7-3.85,0-6.72-.72-8.62-2.15-1.54-1.17-2.85-3.21-3.92-6.13-2.21,4.55-5.27,6.97-9.18,7.28-2.34,0-3.51-1.27-3.51-3.82s1.17-3.8,3.51-3.8h.85c2.47,0,4.63-.97,6.49-2.9,1.86-1.94,2.74-2.92,2.64-2.92.4,0,.75.34,1.05,1,1.33,3.44,3.24,5.16,5.72,5.16,13.13-13.16,22.82-19.75,29.07-19.75,2.35,0,4.57.7,6.67,2.08,2.11,1.39,3.16,2.92,3.16,4.59Z"/>
  <path d="M264.79,526.64h-3.06c-2.44,7.89-5.71,13.85-9.82,17.9-3.68,3.61-7.7,5.42-12.04,5.42-1.74,0-3.49-.42-5.26-1.26-4.51-2.11-6.77-3.68-6.77-4.7,0-.6.3-.9.9-.9.2,0,1.03.15,2.51.44,1.47.3,3.02.46,4.62.46,4.4,0,8.93-1.89,13.59-5.67,4.48-3.65,7.65-7.85,9.52-12.59-3.51-1.77-5.26-3.2-5.26-4.31l1.15-5.67c.07-.47.23-.7.51-.7-.03,0,.94.66,2.93,1.98,1.99,1.32,3.79,1.98,5.39,1.98h1.1v7.62Z"/>
  <path d="M264.79,526.64c-2.34,0-3.51-1.27-3.51-3.82s1.17-3.8,3.51-3.8h24.88v7.62h-24.88Z"/>
  <path d="M289.66,526.64c-2.34,0-3.51-1.27-3.51-3.82s1.17-3.8,3.51-3.8h24.88v7.62h-24.88Z"/>
  <path d="M340.85,479.66l-1.61,3.75-18.5,5.67,1.66-3.8,18.45-5.62Z"/>
  <path d="M342.91,517.92c0,1.2-.44,2.57-1.31,4.11-.98,1.84-2.09,2.75-3.36,2.75-4.98,0-9.66-1.77-14.04-5.33-2.67,4.79-5.74,7.18-9.21,7.18h-.46c-2.34,0-3.51-1.27-3.51-3.82s1.17-3.8,3.51-3.8h2.16c2.81,0,5.79-2.32,8.96-6.96,2.41-3.55,4.17-5.86,5.26-6.93,1.25-1.13,2.63-1.7,4.16-1.7,1.81,0,3.59,1.7,5.33,5.11,1.67,3.28,2.51,6.41,2.51,9.39ZM337.94,517.12c0-1.13-.54-2.64-1.61-4.52-1.2-2.06-2.34-3.1-3.41-3.1-.7,0-1.59.57-2.65,1.7-.98.96-1.66,1.9-2.06,2.8.5.98,1.97,1.89,4.42,2.75,2.06.78,3.6,1.16,4.6,1.16.47,0,.7-.27.7-.8Z"/>
  <path d="M30.03,616.62c2.9-.3,5.23-.99,6.96-2.06v-41.3c-1.89-1.02-4.34-1.7-7.34-2.06l.31-2.75h14.75l17.14,41.61,16.52-41.61h14.6l-.38,2.75c-2.81.31-5.15,1-7.03,2.06v41.3c1.68.98,4.15,1.66,7.41,2.06l-.29,2.84h-21.27l.39-2.84c1.47-.15,2.76-.38,3.85-.69,1.1-.3,2.16-.76,3.18-1.38v-35.56h-.31l-15.52,40.46h-4.52l-16.29-41.15h-.29v36.25c1.78,1.07,4.25,1.76,7.41,2.06l-.29,2.84h-19.35l.38-2.84Z"/>
  <path d="M106.36,620c-3.16,0-5.6-.76-7.34-2.29-1.74-1.53-2.61-3.67-2.61-6.42,0-3.32,1.22-5.94,3.67-7.85,2.45-1.91,5.99-3.02,10.64-3.33l6.28-.46v-6.19c0-2.54-.54-4.4-1.61-5.57-1.07-1.18-2.81-1.77-5.21-1.77-2.03,0-3.6.31-4.7.92-1.09.61-1.64,1.45-1.64,2.52,0,1.34.76,2.28,2.29,2.84,0,1.17-.37,2.08-1.11,2.72-.73.64-1.81.95-3.24.95-1.32,0-2.39-.4-3.21-1.21-.82-.82-1.23-1.89-1.23-3.23,0-2.6,1.16-4.67,3.47-6.23,2.33-1.55,5.45-2.33,9.37-2.33,4.18,0,7.44.92,9.78,2.75,2.35,1.84,3.52,4.38,3.52,7.64v21.34c.46.36,1.2.75,2.21,1.16,1.02.41,2.07.7,3.15.9l-.31,2.61h-10.55l-.75-3.44c-1.59,1.47-3.24,2.51-4.98,3.1-1.73.59-3.69.88-5.88.88ZM108.27,616.85c1.42,0,2.82-.34,4.2-1.03s2.88-1.82,4.52-3.39v-9.64l-6.13.52c-2.39.21-4.28.96-5.65,2.26-1.38,1.3-2.06,2.97-2.06,5.01,0,4.17,1.71,6.26,5.13,6.26Z"/>
  <path d="M132.13,616.71c1.17-.2,2.11-.43,2.82-.69.72-.25,1.46-.68,2.23-1.29v-21.8c0-1.89-.4-3.18-1.2-3.87-.79-.69-2.18-1.08-4.16-1.18l.23-2.23c1.58-.3,3.85-.92,6.8-1.84l2.52-.75,1.38.69.77,5.34c1.17-1.78,2.54-3.23,4.13-4.34,1.58-1.12,3.27-1.69,5.05-1.69s3.42.54,4.77,1.61c1.35,1.07,2.03,2.6,2.03,4.59,0,1.27-.37,2.39-1.11,3.36-.73.98-1.71,1.46-2.93,1.46-.86,0-1.68-.22-2.44-.66-.77-.43-1.25-1.01-1.46-1.72.2-.2.39-.52.54-.95.15-.43.23-.84.23-1.2,0-1.53-.72-2.29-2.15-2.29-.92,0-1.89.49-2.92,1.46-1.02.98-1.87,2.21-2.56,3.72-.69,1.5-1.03,3.01-1.03,4.54v17.75c1.38.92,3.39,1.63,6.05,2.13l-.31,2.61h-17.58l.31-2.75Z"/>
  <path d="M172.96,619.92c-1.78,0-3.83-.29-6.16-.87-2.32-.59-4.06-1.27-5.23-2.03v-9.41l4.05-.54c.2,2.14.45,3.84.72,5.1.28,1.25.73,2.43,1.34,3.54,1.63.52,3.59.77,5.88.77,2.1,0,3.81-.56,5.13-1.67,1.32-1.12,1.98-2.53,1.98-4.21s-.65-2.94-1.95-3.79c-1.3-.84-3.35-1.75-6.15-2.72-2.35-.82-4.25-1.61-5.7-2.38-1.45-.76-2.7-1.86-3.72-3.28-1.02-1.43-1.52-3.27-1.52-5.51,0-3.06,1.13-5.46,3.41-7.19,2.27-1.74,5.4-2.61,9.37-2.61,2.14,0,4.11.34,5.92,1,1.81.67,3.25,1.57,4.33,2.72,1.07,1.15,1.61,2.41,1.61,3.79,0,2.65-1.18,3.97-3.52,3.97-.96,0-1.77-.16-2.41-.49-.64-.33-1.21-.85-1.72-1.57.87-.61,1.31-1.53,1.31-2.75,0-1.07-.57-1.93-1.72-2.59-1.15-.66-2.56-1-4.24-1-2.04,0-3.65.46-4.83,1.38-1.17.92-1.75,2.17-1.75,3.75,0,1.27.39,2.32,1.18,3.16.79.84,1.75,1.52,2.87,2.03,1.12.52,2.74,1.13,4.83,1.84,2.18.82,3.97,1.61,5.38,2.38,1.41.77,2.59,1.83,3.56,3.18.97,1.34,1.46,3.06,1.46,5.15,0,3.42-1.2,6.09-3.59,8-2.39,1.91-5.76,2.87-10.09,2.87Z"/>
  <path d="M206.46,620c-5.35,0-9.4-1.58-12.13-4.74-2.72-3.17-4.08-7.76-4.08-13.78s1.36-10.58,4.08-13.72c2.73-3.13,6.77-4.7,12.13-4.7s9.39,1.57,12.11,4.7c2.73,3.14,4.1,7.71,4.1,13.72s-1.37,10.62-4.1,13.78c-2.72,3.16-6.76,4.74-12.11,4.74ZM206.46,616.48c3.31,0,5.72-1.17,7.23-3.51,1.51-2.35,2.26-6.18,2.26-11.49s-.75-9.1-2.23-11.42c-1.47-2.33-3.9-3.49-7.26-3.49s-5.69,1.16-7.14,3.49c-1.45,2.32-2.18,6.12-2.18,11.42s.73,9.14,2.18,11.49c1.45,2.34,3.83,3.51,7.14,3.51Z"/>
  <path d="M237.97,619.92c-1.78,0-3.83-.29-6.16-.87-2.32-.59-4.06-1.27-5.23-2.03v-9.41l4.05-.54c.2,2.14.45,3.84.72,5.1.28,1.25.73,2.43,1.34,3.54,1.63.52,3.59.77,5.88.77,2.1,0,3.81-.56,5.13-1.67,1.32-1.12,1.98-2.53,1.98-4.21s-.65-2.94-1.95-3.79c-1.3-.84-3.35-1.75-6.15-2.72-2.35-.82-4.25-1.61-5.7-2.38-1.45-.76-2.7-1.86-3.72-3.28-1.02-1.43-1.52-3.27-1.52-5.51,0-3.06,1.13-5.46,3.41-7.19,2.27-1.74,5.4-2.61,9.37-2.61,2.14,0,4.11.34,5.92,1,1.81.67,3.25,1.57,4.33,2.72,1.07,1.15,1.61,2.41,1.61,3.79,0,2.65-1.18,3.97-3.52,3.97-.96,0-1.77-.16-2.41-.49-.64-.33-1.21-.85-1.72-1.57.87-.61,1.31-1.53,1.31-2.75,0-1.07-.57-1.93-1.72-2.59-1.15-.66-2.56-1-4.24-1-2.04,0-3.65.46-4.83,1.38-1.17.92-1.75,2.17-1.75,3.75,0,1.27.39,2.32,1.18,3.16.79.84,1.75,1.52,2.87,2.03,1.12.52,2.74,1.13,4.83,1.84,2.18.82,3.97,1.61,5.38,2.38,1.41.77,2.59,1.83,3.56,3.18.97,1.34,1.46,3.06,1.46,5.15,0,3.42-1.2,6.09-3.59,8-2.39,1.91-5.76,2.87-10.09,2.87Z"/>
  <path d="M260.99,620c-1.34,0-2.34-.39-3.03-1.18-.69-.79-1.03-1.88-1.03-3.26s.34-2.53,1.03-3.29c.69-.76,1.7-1.15,3.03-1.15s2.33.4,3.02,1.2c.69.79,1.03,1.87,1.03,3.24s-.34,2.53-1.03,3.29c-.69.76-1.7,1.15-3.02,1.15Z"/>
  <path d="M282.01,619.92c-1.78,0-3.83-.29-6.16-.87-2.32-.59-4.06-1.27-5.23-2.03v-9.41l4.05-.54c.2,2.14.45,3.84.72,5.1.28,1.25.73,2.43,1.34,3.54,1.63.52,3.59.77,5.88.77,2.1,0,3.81-.56,5.13-1.67,1.32-1.12,1.98-2.53,1.98-4.21s-.65-2.94-1.95-3.79c-1.3-.84-3.35-1.75-6.15-2.72-2.35-.82-4.25-1.61-5.7-2.38-1.45-.76-2.7-1.86-3.72-3.28-1.02-1.43-1.52-3.27-1.52-5.51,0-3.06,1.13-5.46,3.41-7.19,2.27-1.74,5.4-2.61,9.37-2.61,2.14,0,4.11.34,5.92,1,1.81.67,3.25,1.57,4.33,2.72,1.07,1.15,1.61,2.41,1.61,3.79,0,2.65-1.18,3.97-3.52,3.97-.96,0-1.77-.16-2.41-.49-.64-.33-1.21-.85-1.72-1.57.87-.61,1.31-1.53,1.31-2.75,0-1.07-.57-1.93-1.72-2.59-1.15-.66-2.56-1-4.24-1-2.04,0-3.65.46-4.83,1.38-1.17.92-1.75,2.17-1.75,3.75,0,1.27.39,2.32,1.18,3.16.79.84,1.75,1.52,2.87,2.03,1.12.52,2.74,1.13,4.83,1.84,2.18.82,3.97,1.61,5.38,2.38,1.41.77,2.59,1.83,3.56,3.18.97,1.34,1.46,3.06,1.46,5.15,0,3.42-1.2,6.09-3.59,8-2.39,1.91-5.76,2.87-10.09,2.87Z"/>
  <path d="M309.08,620c-3.16,0-5.6-.76-7.34-2.29-1.74-1.53-2.61-3.67-2.61-6.42,0-3.32,1.22-5.94,3.67-7.85,2.45-1.91,5.99-3.02,10.64-3.33l6.28-.46v-6.19c0-2.54-.54-4.4-1.61-5.57-1.07-1.18-2.81-1.77-5.21-1.77-2.03,0-3.6.31-4.7.92-1.09.61-1.64,1.45-1.64,2.52,0,1.34.76,2.28,2.29,2.84,0,1.17-.37,2.08-1.11,2.72-.73.64-1.81.95-3.24.95-1.32,0-2.39-.4-3.21-1.21-.82-.82-1.23-1.89-1.23-3.23,0-2.6,1.16-4.67,3.47-6.23,2.33-1.55,5.45-2.33,9.37-2.33,4.18,0,7.44.92,9.78,2.75,2.35,1.84,3.52,4.38,3.52,7.64v21.34c.46.36,1.2.75,2.21,1.16,1.02.41,2.07.7,3.15.9l-.31,2.61h-10.55l-.75-3.44c-1.59,1.47-3.24,2.51-4.98,3.1-1.73.59-3.69.88-5.88.88ZM311,616.85c1.42,0,2.82-.34,4.2-1.03s2.88-1.82,4.52-3.39v-9.64l-6.13.52c-2.39.21-4.28.96-5.65,2.26-1.38,1.3-2.06,2.97-2.06,5.01,0,4.17,1.71,6.26,5.13,6.26Z"/>
</svg>